<?xml version="1.0" encoding="UTF-8" standalone="no"?>
<svg width="43px" height="28px" viewBox="0 0 43 28" version="1.1" xmlns="http://www.w3.org/2000/svg" xmlns:xlink="http://www.w3.org/1999/xlink">
    <!-- Generator: Sketch 3.8.3 (29802) - http://www.bohemiancoding.com/sketch -->
    <title>most-shots-on-target</title>
    <desc>Created with Sketch.</desc>
    <defs></defs>
    <g id="Main-App" stroke="none" stroke-width="1" fill="none" fill-rule="evenodd">
        <g id="Icon-set" transform="translate(-25.000000, -451.000000)" fill="#FFC531">
            <g id="Group-20" transform="translate(14.000000, 435.000000)">
                <g id="most-shots-on-target" transform="translate(11.000000, 12.000000)">
                    <g id="Group" transform="translate(22.500000, 17.000000) scale(-1, 1) rotate(-45.000000) translate(-22.500000, -17.000000) translate(6.000000, 10.000000)">
                        <path d="M4.37715752,12.5080621 L4.52518064,13.2464182 C4.52117486,13.2617607 4.51850434,13.2771032 4.51869509,13.2924456 C4.5206026,13.4918977 4.87597255,13.6510758 5.31241185,13.6453223 C5.74885116,13.6414867 6.10097833,13.4765552 6.09907081,13.2771032 C6.09888006,13.2617607 6.09582804,13.2464182 6.09163151,13.2310758 L6.19196677,12.6710758 C5.50545231,12.6308018 4.90305925,12.5771032 4.37715752,12.5080621 Z M9.04560838,12.7650484 L9.20908237,13.5820347 C9.20507659,13.5954593 9.20240607,13.6108018 9.20240607,13.6261443 C9.20450434,13.8255963 9.55987428,13.9847744 9.99631359,13.9809388 C10.4325621,13.9751854 10.7848801,13.8102538 10.7827818,13.6108018 C10.782591,13.5954593 10.7797298,13.5801169 10.7753425,13.5647744 L10.9178338,12.7727196 C10.2517298,12.7746374 9.62873555,12.7727196 9.04560838,12.7650484 Z M25.6518569,12.4908018 L25.8424176,13.4439525 C25.8384119,13.4573771 25.8357413,13.4727196 25.8359321,13.4880621 C25.8378396,13.6875141 26.1932095,13.8466922 26.6296488,13.8428566 C27.0660882,13.8371032 27.4182153,13.6721717 27.4161171,13.4727196 C27.4159263,13.4573771 27.413065,13.4420347 27.4086777,13.4266922 L27.5677645,12.5425826 C26.9554523,12.548336 26.3126199,12.529158 25.6518569,12.4908018 Z M29.0850014,12.4658703 L29.2696488,13.3864182 C29.2656431,13.4017607 29.2629725,13.4171032 29.2629725,13.4324456 C29.2650708,13.6318977 29.6204408,13.7910758 30.0568801,13.7853223 C30.4933194,13.7814867 30.8454465,13.6165552 30.8433483,13.4171032 C30.8431575,13.4017607 30.8402962,13.3864182 30.835909,13.3710758 L31.0705332,12.0650484 C30.5057182,12.2625826 29.8340824,12.3929936 29.0850014,12.4658703 Z M32.6249668,6.96559631 L16.9404292,11.7294319 C18.3023945,11.5894319 20.0826777,11.5645004 22.6252038,11.8732675 C27.6913714,12.4869662 32.7724176,12.5003908 32.9130014,9.67162371 C32.9515332,8.89682919 32.8428049,7.93408946 32.6249668,6.96559631 Z M30.9421575,3.07819905 C26.1899668,6.17545932 22.0088858,3.61326754 20.9513598,1.22751412 C20.7989494,0.884226447 20.8386257,0.491075763 20.879065,0.119020968 C20.451591,0.17080179 20.0153425,0.268610009 19.5825275,0.39710316 L20.1935043,4.04285658 L11.5494119,8.58039083 L8.93802457,6.00477439 C4.69609393,7.63299357 0.491169078,8.78176069 0.160978326,9.71189768 C-0.523437859,11.6373771 1.50653902,12.5598429 12.5107991,12.4198429 C13.3356084,12.4102538 14.0799205,12.218473 15.0317702,12.0266922 L31.6994408,4.26340453 C31.469013,3.79929494 31.2143598,3.39080179 30.9421575,3.07819905 Z M19.2603483,3.57682919 L18.7731691,0.669431927 C17.3198338,1.22176069 16.0002153,2.03491138 15.3219032,2.55080179 C13.5374234,3.9066922 11.6239957,4.90203467 9.79488006,5.66340453 L11.7023945,7.54285658 L19.2603483,3.57682919 Z" id="Fill-375"></path>
                    </g>
                    <path d="M5,27 L19,27 L19,28 L5,28 L5,27 Z M0,21 L14,21 L14,22 L0,22 L0,21 Z M1,12 L5,12 L5,13 L1,13 L1,12 Z" id="Rectangle-266"></path>
                    <text id="#" font-family="Comfortaa-Regular, Comfortaa" font-size="22" font-weight="normal">
                        <tspan x="30" y="22">#</tspan>
                    </text>
                </g>
            </g>
        </g>
    </g>
</svg>